<?xml version="1.0" standalone="no"?>
<!DOCTYPE svg PUBLIC "-//W3C//DTD SVG 20010904//EN"
 "http://www.w3.org/TR/2001/REC-SVG-20010904/DTD/svg10.dtd">
<svg version="1.0" xmlns="http://www.w3.org/2000/svg"
 width="32.000000pt" height="32.000000pt" viewBox="0 0 32.000000 32.000000"
 preserveAspectRatio="xMidYMid meet">

<g transform="translate(0.000000,32.000000) scale(0.100000,-0.100000)"
fill="#000000" stroke="none">
<path d="M148 238 l-3 -63 -62 -3 c-35 -2 -63 -7 -63 -12 0 -5 28 -10 63 -12
l62 -3 3 -62 c2 -35 7 -63 12 -63 5 0 10 28 12 63 l3 62 63 3 c80 4 80 20 0
24 l-63 3 -3 63 c-2 34 -7 62 -12 62 -5 0 -10 -28 -12 -62z"/>
<path d="M214 261 c15 -16 15 -19 1 -31 -24 -20 -17 -34 9 -17 21 14 26 15 37
1 6 -8 14 -12 17 -9 3 2 -1 11 -8 20 -10 12 -10 18 0 30 17 20 5 32 -15 15
-12 -10 -19 -10 -27 -2 -20 20 -32 13 -14 -7z"/>
<path d="M53 103 c15 -16 15 -18 0 -35 -15 -16 -15 -18 0 -18 9 0 19 5 22 11
5 7 14 4 26 -7 20 -18 27 -6 7 14 -8 8 -8 15 2 27 17 20 5 32 -15 15 -12 -10
-19 -10 -27 -2 -7 7 -17 12 -22 12 -6 0 -3 -8 7 -17z"/>
</g>
</svg>
