<?xml version="1.0" standalone="no"?>
<!DOCTYPE svg PUBLIC "-//W3C//DTD SVG 20010904//EN"
 "http://www.w3.org/TR/2001/REC-SVG-20010904/DTD/svg10.dtd">
<svg version="1.0" xmlns="http://www.w3.org/2000/svg"
 width="512.000000pt" height="512.000000pt" viewBox="0 0 512.000000 512.000000"
 preserveAspectRatio="xMidYMid meet">

<g transform="translate(0.000000,512.000000) scale(0.100000,-0.100000)"
fill="#000000" stroke="none">
<path d="M3130 4949 c-688 -88 -1261 -613 -1396 -1279 -17 -84 -17 -86 4 -132
35 -80 117 -114 197 -83 65 24 89 59 114 167 119 497 500 874 1001 989 122 28
338 35 465 16 680 -106 1155 -684 1122 -1366 -29 -585 -439 -1074 -1015 -1211
-73 -18 -101 -29 -127 -54 -69 -65 -67 -165 4 -229 49 -44 90 -51 181 -32 497
105 944 474 1144 945 98 230 130 393 130 650 0 273 -42 462 -153 696 -243 508
-706 846 -1261 920 -114 15 -306 16 -410 3z"/>
<path d="M3211 4299 c-269 -33 -534 -188 -662 -388 -106 -164 114 -338 244
-194 101 112 159 164 217 193 190 96 426 93 630 -7 147 -72 280 -241 325 -413
23 -85 23 -235 1 -320 -35 -138 -115 -265 -216 -345 -58 -46 -80 -86 -80 -145
0 -101 99 -177 198 -151 92 26 257 204 337 366 153 310 129 684 -62 972 -55
84 -186 217 -264 269 -196 130 -445 191 -668 163z"/>
<path d="M1832 3076 c-1191 -334 -1478 -418 -1498 -437 -37 -34 -54 -72 -54
-118 0 -85 10 -95 355 -341 176 -126 329 -236 340 -244 19 -14 2 -33 -382
-418 -404 -405 -433 -439 -433 -505 1 -64 38 -108 396 -465 358 -356 395 -388
459 -388 64 0 101 31 502 433 243 242 406 398 411 392 5 -6 115 -159 245 -340
255 -357 262 -365 351 -365 47 0 97 27 127 70 10 14 203 687 429 1495 340
1216 410 1477 404 1508 -11 68 -92 138 -156 136 -13 0 -686 -186 -1496 -413z"/>
</g>
</svg>
